<?xml version="1.0" encoding="utf-8"?>
<svg id="master-artboard" viewBox="0 0 1000 1000" version="1.1" xmlns="http://www.w3.org/2000/svg" x="0px" y="0px" style="enable-background:new 0 0 1400 980;" width="1000px" height="1000px"><defs><style id="ee-google-fonts">@import url(https://fonts.googleapis.com/css?family=Anton:400|Roboto+Slab:100,300,400,700);</style><path id="text-path-0" d="M 778.8464965820312 213.4612274169922 A 100 18 0 0 1 988.3533935546875 213.4612274169922 A 100 18 0 0 1 778.8464965820312 213.4612274169922 Z" style="fill: none; stroke: red; stroke-width: 2;"/><path id="text-path-1" d="M 664.5464477539062 37.96122741699219 A 100 19 0 0 1 876.5812377929688 37.96122741699219 A 100 19 0 0 1 664.5464477539062 37.96122741699219" style="fill: none; stroke: red; stroke-width: 2;"/><path id="text-path-2" d="M 765.3650512695312 211.70851135253906 A 100 17 0 0 1 991.5017700195312 211.70851135253906 A 100 17 0 0 1 765.3650512695312 211.70851135253906" style="fill: none; stroke: red; stroke-width: 2;"/><path id="path-1" d="M 765.3650512695312 211.70851135253906 A 100 17 0 0 1 991.5017700195312 211.70851135253906 A 100 17 0 0 1 765.3650512695312 211.70851135253906" style="fill: none; stroke: red; stroke-width: 2;"/></defs><rect id="ee-background" x="0" y="0" width="1000" height="1000" style="fill: white; fill-opacity: 0; pointer-events: none;"/>


<path d="M 880.3870239257812 239.90606689453125" style="fill: rgb(63, 61, 61); fill-opacity: 1; stroke: rgb(0, 0, 0); stroke-opacity: 1; stroke-width: 0; paint-order: fill;" transform="matrix(1, 0, 0, 1, -220.8482666015625, 30.73663330078125)"/><path d="M 864.144775390625 229.48651123046875" style="fill: rgb(63, 61, 61); fill-opacity: 1; stroke: rgb(0, 0, 0); stroke-opacity: 1; stroke-width: 0; paint-order: fill;" transform="matrix(1, 0, 0, 1, -220.8482666015625, 30.73663330078125)"/><g transform="matrix(4.913509368896484, 0, 0, 4.907250881195068, -5.908624160433817, -2039.1989746751078)"><g id="g-1" transform="matrix(1.9900795221328735, 0, 0, 1.9900795221328735, -101.24250340194261, -514.3889944435502)">
	<g id="g-2">
		<path class="st0" d="M143.7,542.8c1.1-4.1,2.8-8.1,4.9-11.8l3.3-6.2c1.5-3.7,1.5-7.9,0-11.7l-3.3-6.2c-2.1-3.7-3.8-7.7-4.9-11.8&#10;&#9;&#9;&#9;l-2-6.7c-1.6-3.7-4.5-6.7-8.3-8.3l-6.7-2c-4.1-1.1-8.1-2.8-11.8-4.9l-6.2-3.3c-3.7-1.5-7.9-1.5-11.7,0l-6.2,3.3&#10;&#9;&#9;&#9;c-3.7,2.1-7.6,3.8-11.8,4.9l-6.7,2c-3.7,1.6-6.7,4.5-8.3,8.3l-2,6.7c-1.1,4.1-2.8,8.1-4.9,11.8l-3.3,6.2c-1.5,3.7-1.5,7.9,0,11.7&#10;&#9;&#9;&#9;l3.3,6.2c2.1,3.7,3.8,7.6,4.9,11.8l2,6.7c1.6,3.7,4.5,6.7,8.3,8.3l6.7,2c4.1,1.1,8.1,2.8,11.8,4.9l6.2,3.3c3.7,1.5,7.9,1.5,11.7,0&#10;&#9;&#9;&#9;l6.2-3.3c3.7-2.1,7.7-3.8,11.8-4.9l6.7-2c3.7-1.6,6.7-4.5,8.3-8.3L143.7,542.8z" style="fill: rgb(232, 155, 93); stroke: rgb(210, 99, 59);" transform="matrix(0.9939147830009459, 0, 0, 0.9926487589541241, 0.32054001092910767, 3.4411336800318395)"/>
	</g>
</g></g></svg>